<mxfile host="Electron" modified="2023-09-01T03:15:16.754Z" agent="Mozilla/5.0 (Windows NT 10.0; Win64; x64) AppleWebKit/537.36 (KHTML, like Gecko) draw.io/21.6.5 Chrome/114.0.5735.243 Electron/25.3.1 Safari/537.36" etag="l0TjzZv436Eb4u8KlmMx" version="21.6.5" type="device">
  <diagram name="第 1 页" id="_lFBR2EcqoSp1VaM1o4b">
    <mxGraphModel dx="1101" dy="744" grid="1" gridSize="10" guides="1" tooltips="1" connect="1" arrows="1" fold="1" page="1" pageScale="1" pageWidth="827" pageHeight="1169" math="0" shadow="0">
      <root>
        <mxCell id="0" />
        <mxCell id="1" parent="0" />
        <mxCell id="2OimegAkqXy0Qi4uwfDa-3" value="" style="edgeStyle=orthogonalEdgeStyle;rounded=0;orthogonalLoop=1;jettySize=auto;html=1;entryX=0;entryY=0.5;entryDx=0;entryDy=0;" edge="1" parent="1" source="2OimegAkqXy0Qi4uwfDa-1" target="2OimegAkqXy0Qi4uwfDa-2">
          <mxGeometry relative="1" as="geometry" />
        </mxCell>
        <mxCell id="2OimegAkqXy0Qi4uwfDa-8" style="edgeStyle=orthogonalEdgeStyle;rounded=0;orthogonalLoop=1;jettySize=auto;html=1;entryX=0;entryY=0.5;entryDx=0;entryDy=0;" edge="1" parent="1" source="2OimegAkqXy0Qi4uwfDa-1" target="2OimegAkqXy0Qi4uwfDa-4">
          <mxGeometry relative="1" as="geometry" />
        </mxCell>
        <mxCell id="2OimegAkqXy0Qi4uwfDa-9" style="edgeStyle=orthogonalEdgeStyle;rounded=0;orthogonalLoop=1;jettySize=auto;html=1;entryX=0;entryY=0.5;entryDx=0;entryDy=0;" edge="1" parent="1" source="2OimegAkqXy0Qi4uwfDa-1" target="2OimegAkqXy0Qi4uwfDa-6">
          <mxGeometry relative="1" as="geometry" />
        </mxCell>
        <mxCell id="2OimegAkqXy0Qi4uwfDa-10" style="edgeStyle=orthogonalEdgeStyle;rounded=0;orthogonalLoop=1;jettySize=auto;html=1;entryX=0;entryY=0.5;entryDx=0;entryDy=0;" edge="1" parent="1" source="2OimegAkqXy0Qi4uwfDa-1" target="2OimegAkqXy0Qi4uwfDa-5">
          <mxGeometry relative="1" as="geometry" />
        </mxCell>
        <mxCell id="2OimegAkqXy0Qi4uwfDa-11" style="edgeStyle=orthogonalEdgeStyle;rounded=0;orthogonalLoop=1;jettySize=auto;html=1;entryX=0;entryY=0.5;entryDx=0;entryDy=0;" edge="1" parent="1" source="2OimegAkqXy0Qi4uwfDa-1" target="2OimegAkqXy0Qi4uwfDa-7">
          <mxGeometry relative="1" as="geometry" />
        </mxCell>
        <mxCell id="2OimegAkqXy0Qi4uwfDa-1" value="JUC" style="rounded=0;whiteSpace=wrap;html=1;" vertex="1" parent="1">
          <mxGeometry x="40" y="560" width="120" height="60" as="geometry" />
        </mxCell>
        <mxCell id="2OimegAkqXy0Qi4uwfDa-2" value="Atmoic" style="rounded=0;whiteSpace=wrap;html=1;" vertex="1" parent="1">
          <mxGeometry x="240" y="560" width="120" height="60" as="geometry" />
        </mxCell>
        <mxCell id="2OimegAkqXy0Qi4uwfDa-13" value="" style="edgeStyle=orthogonalEdgeStyle;rounded=0;orthogonalLoop=1;jettySize=auto;html=1;entryX=0;entryY=0.5;entryDx=0;entryDy=0;" edge="1" parent="1" source="2OimegAkqXy0Qi4uwfDa-4" target="2OimegAkqXy0Qi4uwfDa-12">
          <mxGeometry relative="1" as="geometry" />
        </mxCell>
        <mxCell id="2OimegAkqXy0Qi4uwfDa-15" style="edgeStyle=orthogonalEdgeStyle;rounded=0;orthogonalLoop=1;jettySize=auto;html=1;entryX=0;entryY=0.5;entryDx=0;entryDy=0;" edge="1" parent="1" source="2OimegAkqXy0Qi4uwfDa-4" target="2OimegAkqXy0Qi4uwfDa-14">
          <mxGeometry relative="1" as="geometry" />
        </mxCell>
        <mxCell id="2OimegAkqXy0Qi4uwfDa-4" value="CAS和AQS" style="rounded=0;whiteSpace=wrap;html=1;" vertex="1" parent="1">
          <mxGeometry x="240" y="150" width="120" height="60" as="geometry" />
        </mxCell>
        <mxCell id="2OimegAkqXy0Qi4uwfDa-5" value="Collections" style="rounded=0;whiteSpace=wrap;html=1;" vertex="1" parent="1">
          <mxGeometry x="240" y="730" width="120" height="60" as="geometry" />
        </mxCell>
        <mxCell id="2OimegAkqXy0Qi4uwfDa-6" value="Lock" style="rounded=0;whiteSpace=wrap;html=1;" vertex="1" parent="1">
          <mxGeometry x="240" y="390" width="120" height="60" as="geometry" />
        </mxCell>
        <mxCell id="2OimegAkqXy0Qi4uwfDa-7" value="tools" style="rounded=0;whiteSpace=wrap;html=1;" vertex="1" parent="1">
          <mxGeometry x="240" y="880" width="120" height="60" as="geometry" />
        </mxCell>
        <mxCell id="2OimegAkqXy0Qi4uwfDa-17" value="" style="edgeStyle=orthogonalEdgeStyle;rounded=0;orthogonalLoop=1;jettySize=auto;html=1;" edge="1" parent="1" source="2OimegAkqXy0Qi4uwfDa-12" target="2OimegAkqXy0Qi4uwfDa-16">
          <mxGeometry relative="1" as="geometry" />
        </mxCell>
        <mxCell id="2OimegAkqXy0Qi4uwfDa-12" value="CAS" style="rounded=0;whiteSpace=wrap;html=1;" vertex="1" parent="1">
          <mxGeometry x="440" y="100" width="120" height="60" as="geometry" />
        </mxCell>
        <mxCell id="2OimegAkqXy0Qi4uwfDa-14" value="AQS" style="rounded=0;whiteSpace=wrap;html=1;" vertex="1" parent="1">
          <mxGeometry x="440" y="260" width="120" height="60" as="geometry" />
        </mxCell>
        <mxCell id="2OimegAkqXy0Qi4uwfDa-16" value="CAS" style="rounded=0;whiteSpace=wrap;html=1;" vertex="1" parent="1">
          <mxGeometry x="640" y="40" width="120" height="60" as="geometry" />
        </mxCell>
      </root>
    </mxGraphModel>
  </diagram>
</mxfile>
